<svg xmlns="http://www.w3.org/2000/svg" xmlns:xlink="http://www.w3.org/1999/xlink" width="500" zoomAndPan="magnify" viewBox="0 0 375 374.999991" height="500" preserveAspectRatio="xMidYMid meet" version="1.0"><defs><g/></defs><path fill="#8ec241" d="M 177.019531 169.277344 L 184.085938 169.277344 L 184.085938 176.335938 L 177.019531 176.335938 Z M 177.019531 169.277344 " fill-opacity="1" fill-rule="nonzero"/><path fill="#8ec241" d="M 167.457031 169.277344 L 174.519531 169.277344 L 174.519531 176.335938 L 167.457031 176.335938 Z M 167.457031 169.277344 " fill-opacity="1" fill-rule="nonzero"/><path fill="#8ec241" d="M 167.457031 159.621094 L 174.519531 159.621094 L 174.519531 166.6875 L 167.457031 166.6875 Z M 167.457031 159.621094 " fill-opacity="1" fill-rule="nonzero"/><path fill="#8ec241" d="M 177.019531 159.621094 L 184.085938 159.621094 L 184.085938 166.6875 L 177.019531 166.6875 Z M 177.019531 159.621094 " fill-opacity="1" fill-rule="nonzero"/><path fill="#8ec241" d="M 177.703125 140.992188 L 151.570312 170.722656 C 150.761719 170.355469 149.964844 169.976562 149.179688 169.582031 L 176.015625 139.050781 Z M 177.703125 140.992188 " fill-opacity="1" fill-rule="nonzero"/><path fill="#ffffff" d="M 266.449219 176.566406 L 265.980469 182.863281 L 217.894531 182.109375 L 218.070312 176.335938 L 176.144531 133.285156 L 145.976562 167.875 C 144.714844 167.160156 143.5 166.414062 142.316406 165.628906 L 173.457031 130.195312 L 176.171875 130.835938 L 214.894531 139.964844 L 214.542969 152.558594 L 219.363281 155.621094 L 219.363281 130.902344 L 229.019531 134.785156 L 229.019531 143.496094 L 238.199219 145.730469 Z M 266.449219 176.566406 " fill-opacity="1" fill-rule="nonzero"/><path fill="#ffffff" d="M 229.019531 129.046875 L 219.308594 124.898438 L 219.308594 128.34375 L 229.019531 132.492188 Z M 229.019531 129.046875 " fill-opacity="1" fill-rule="nonzero"/><path fill="#8ec241" d="M 115.402344 134.085938 C 117.398438 133.6875 118.902344 131.929688 118.902344 129.816406 C 118.902344 128.894531 118.613281 128.039062 118.121094 127.335938 L 143.675781 116.613281 C 144.210938 118.460938 145.914062 119.8125 147.929688 119.8125 C 148.296875 119.8125 148.652344 119.761719 148.992188 119.675781 C 149.972656 131.9375 155.449219 142.960938 155.449219 142.960938 C 153.128906 134.695312 153.480469 123.527344 153.480469 123.527344 L 158.207031 121.554688 C 158.566406 122.605469 159.484375 123.398438 160.605469 123.582031 C 159.199219 131.265625 161.191406 139.261719 161.191406 139.261719 C 161.457031 129.425781 170.609375 109.074219 170.609375 109.074219 L 153.917969 116.050781 L 155.230469 105.617188 L 106.546875 125.972656 C 116.609375 162.273438 139.558594 179.472656 173.710938 180.046875 C 144.96875 175.132812 124.621094 160.832031 115.402344 134.085938 Z M 115.402344 134.085938 " fill-opacity="1" fill-rule="nonzero"/><path fill="#8ec241" d="M 133.21875 134.847656 C 132.886719 134.988281 132.628906 135.136719 132.445312 135.296875 C 132.261719 135.457031 132.136719 135.613281 132.074219 135.761719 C 132 135.949219 131.988281 136.15625 132.039062 136.394531 C 132.085938 136.632812 132.148438 136.839844 132.222656 137.015625 C 132.316406 137.242188 132.429688 137.414062 132.554688 137.535156 C 132.679688 137.65625 132.8125 137.746094 132.945312 137.800781 C 133.082031 137.855469 133.210938 137.886719 133.335938 137.886719 C 133.460938 137.890625 133.574219 137.886719 133.664062 137.875 L 134.992188 137.761719 L 133.695312 134.648438 Z M 133.21875 134.847656 " fill-opacity="1" fill-rule="nonzero"/><path fill="#8ec241" d="M 139.667969 139.660156 C 139.375 139.429688 138.9375 139.339844 138.34375 139.386719 L 137.335938 139.476562 L 138.714844 142.78125 L 139.140625 142.601562 C 139.332031 142.523438 139.558594 142.402344 139.828125 142.242188 C 140.09375 142.082031 140.277344 141.90625 140.378906 141.710938 C 140.445312 141.574219 140.476562 141.402344 140.476562 141.203125 C 140.476562 141 140.425781 140.773438 140.320312 140.527344 C 140.175781 140.183594 139.957031 139.894531 139.667969 139.660156 Z M 139.667969 139.660156 " fill-opacity="1" fill-rule="nonzero"/><path fill="#8ec241" d="M 131.859375 128.351562 C 126.140625 130.734375 123.441406 137.300781 125.824219 143.015625 C 128.207031 148.730469 134.769531 151.433594 140.488281 149.050781 C 146.203125 146.667969 148.90625 140.101562 146.523438 134.382812 C 144.136719 128.671875 137.574219 125.972656 131.859375 128.351562 Z M 143.242188 141.800781 C 143.210938 142.042969 143.125 142.285156 142.988281 142.523438 C 142.871094 142.738281 142.71875 142.929688 142.539062 143.097656 C 142.359375 143.261719 142.164062 143.410156 141.953125 143.539062 C 141.742188 143.667969 141.523438 143.78125 141.300781 143.882812 C 141.078125 143.984375 140.867188 144.074219 140.664062 144.160156 L 139.492188 144.648438 L 139.996094 145.855469 L 138.609375 146.433594 L 138.105469 145.226562 L 134.054688 146.917969 L 133.277344 145.050781 L 137.328125 143.359375 L 135.765625 139.609375 L 133.0625 139.839844 C 132.6875 139.871094 132.328125 139.871094 131.980469 139.84375 C 131.636719 139.8125 131.261719 139.652344 130.863281 139.359375 C 130.539062 139.117188 130.285156 138.839844 130.09375 138.523438 C 129.90625 138.203125 129.753906 137.902344 129.632812 137.621094 C 129.480469 137.25 129.359375 136.867188 129.269531 136.46875 C 129.179688 136.070312 129.199219 135.667969 129.339844 135.261719 C 129.425781 135 129.550781 134.773438 129.710938 134.574219 C 129.871094 134.375 130.046875 134.203125 130.246094 134.058594 C 130.441406 133.914062 130.648438 133.785156 130.859375 133.675781 C 131.070312 133.570312 131.277344 133.472656 131.480469 133.386719 L 132.917969 132.789062 L 132.414062 131.578125 L 133.800781 131 L 134.304688 132.210938 L 138.109375 130.625 L 138.886719 132.488281 L 135.082031 134.074219 L 136.5625 137.628906 L 138.941406 137.433594 C 139.304688 137.40625 139.6875 137.390625 140.082031 137.394531 C 140.480469 137.394531 140.910156 137.527344 141.367188 137.796875 C 141.773438 138.03125 142.070312 138.308594 142.265625 138.621094 C 142.457031 138.9375 142.640625 139.296875 142.808594 139.699219 C 142.902344 139.921875 142.988281 140.152344 143.070312 140.382812 C 143.152344 140.613281 143.207031 140.847656 143.238281 141.082031 C 143.273438 141.316406 143.273438 141.558594 143.242188 141.800781 Z M 143.242188 141.800781 " fill-opacity="1" fill-rule="nonzero"/><g fill="#ffffff" fill-opacity="1"><g transform="translate(114.181346, 236.994971)"><g><path d="M 18.21875 -0.453125 C 17.53125 -0.210938 16.628906 -0.015625 15.515625 0.140625 C 14.410156 0.304688 13.363281 0.390625 12.375 0.390625 C 9.269531 0.390625 6.988281 -0.117188 5.53125 -1.140625 C 4.082031 -2.160156 3.117188 -3.859375 2.640625 -6.234375 C 2.171875 -8.609375 1.9375 -12.207031 1.9375 -17.03125 C 1.9375 -21.820312 2.179688 -25.410156 2.671875 -27.796875 C 3.171875 -30.191406 4.15625 -31.898438 5.625 -32.921875 C 7.09375 -33.953125 9.34375 -34.46875 12.375 -34.46875 C 13.46875 -34.46875 14.550781 -34.390625 15.625 -34.234375 C 16.695312 -34.085938 17.53125 -33.898438 18.125 -33.671875 L 18.125 -28.125 C 16.207031 -28.351562 14.753906 -28.46875 13.765625 -28.46875 C 12.078125 -28.46875 10.910156 -28.242188 10.265625 -27.796875 C 9.628906 -27.359375 9.21875 -26.410156 9.03125 -24.953125 C 8.851562 -23.503906 8.765625 -20.863281 8.765625 -17.03125 C 8.765625 -13.207031 8.851562 -10.566406 9.03125 -9.109375 C 9.21875 -7.660156 9.628906 -6.710938 10.265625 -6.265625 C 10.910156 -5.816406 12.078125 -5.59375 13.765625 -5.59375 C 15.285156 -5.59375 16.769531 -5.707031 18.21875 -5.9375 Z M 18.21875 -0.453125 "/></g></g></g><g fill="#ffffff" fill-opacity="1"><g transform="translate(131.810999, 236.994971)"><g><path d="M 6.984375 0.390625 C 4.929688 0.390625 3.457031 -0.222656 2.5625 -1.453125 C 1.675781 -2.691406 1.234375 -4.632812 1.234375 -7.28125 C 1.234375 -9.226562 1.429688 -10.753906 1.828125 -11.859375 C 2.222656 -12.960938 2.890625 -13.769531 3.828125 -14.28125 C 4.773438 -14.789062 6.09375 -15.046875 7.78125 -15.046875 C 8.96875 -15.046875 10.550781 -14.984375 12.53125 -14.859375 L 12.53125 -16 C 12.53125 -17.382812 12.421875 -18.363281 12.203125 -18.9375 C 11.992188 -19.519531 11.597656 -19.890625 11.015625 -20.046875 C 10.441406 -20.210938 9.441406 -20.296875 8.015625 -20.296875 C 6.628906 -20.296875 4.78125 -20.179688 2.46875 -19.953125 L 2.46875 -24.90625 C 4.945312 -25.40625 7.441406 -25.65625 9.953125 -25.65625 C 12.429688 -25.65625 14.3125 -25.320312 15.59375 -24.65625 C 16.882812 -24 17.757812 -22.957031 18.21875 -21.53125 C 18.6875 -20.113281 18.921875 -18.085938 18.921875 -15.453125 L 18.921875 0 L 12.828125 0 L 12.625 -2.96875 L 12.28125 -2.96875 C 11.851562 -1.75 11.160156 -0.882812 10.203125 -0.375 C 9.242188 0.132812 8.171875 0.390625 6.984375 0.390625 Z M 9.75 -5.15625 C 10.3125 -5.15625 10.765625 -5.21875 11.109375 -5.34375 C 11.460938 -5.476562 11.753906 -5.726562 11.984375 -6.09375 C 12.347656 -6.65625 12.53125 -7.789062 12.53125 -9.5 L 12.53125 -10.75 L 9.5625 -10.75 C 8.695312 -10.75 8.125 -10.566406 7.84375 -10.203125 C 7.5625 -9.835938 7.421875 -9.046875 7.421875 -7.828125 C 7.421875 -6.765625 7.5625 -6.050781 7.84375 -5.6875 C 8.125 -5.332031 8.757812 -5.15625 9.75 -5.15625 Z M 9.75 -5.15625 "/></g></g></g><g fill="#ffffff" fill-opacity="1"><g transform="translate(150.926313, 236.994971)"><g><path d="M 24.515625 -13.671875 C 24.515625 -15.742188 24.460938 -17.1875 24.359375 -18 C 24.265625 -18.8125 24.078125 -19.320312 23.796875 -19.53125 C 23.515625 -19.75 22.992188 -19.859375 22.234375 -19.859375 C 21.441406 -19.859375 20.878906 -19.691406 20.546875 -19.359375 C 20.210938 -19.023438 20.003906 -18.421875 19.921875 -17.546875 C 19.847656 -16.671875 19.8125 -15.128906 19.8125 -12.921875 L 19.8125 0 L 13.421875 0 L 13.421875 -13.671875 C 13.421875 -15.742188 13.367188 -17.1875 13.265625 -18 C 13.171875 -18.8125 12.984375 -19.320312 12.703125 -19.53125 C 12.421875 -19.75 11.882812 -19.859375 11.09375 -19.859375 C 10.300781 -19.859375 9.75 -19.691406 9.4375 -19.359375 C 9.125 -19.023438 8.914062 -18.40625 8.8125 -17.5 C 8.71875 -16.59375 8.671875 -15.066406 8.671875 -12.921875 L 8.671875 0 L 2.28125 0 L 2.28125 -25.25 L 8.3125 -25.25 L 8.515625 -22.234375 L 8.859375 -22.234375 C 9.359375 -23.453125 10.050781 -24.328125 10.9375 -24.859375 C 11.832031 -25.390625 12.972656 -25.65625 14.359375 -25.65625 C 15.847656 -25.65625 16.988281 -25.378906 17.78125 -24.828125 C 18.570312 -24.285156 19.113281 -23.421875 19.40625 -22.234375 L 19.8125 -22.234375 C 20.269531 -23.453125 20.957031 -24.328125 21.875 -24.859375 C 22.800781 -25.390625 23.960938 -25.65625 25.359375 -25.65625 C 26.867188 -25.65625 28.019531 -25.347656 28.8125 -24.734375 C 29.601562 -24.117188 30.144531 -23.191406 30.4375 -21.953125 C 30.738281 -20.722656 30.890625 -19.035156 30.890625 -16.890625 L 30.890625 0 L 24.515625 0 Z M 24.515625 -13.671875 "/></g></g></g><g fill="#ffffff" fill-opacity="1"><g transform="translate(182.075442, 236.994971)"><g><path d="M 14.0625 0.390625 C 11.320312 0.390625 9.601562 -0.726562 8.90625 -2.96875 L 8.515625 -2.96875 L 8.3125 0 L 2.28125 0 L 2.28125 -36.796875 L 8.671875 -36.796875 L 8.671875 -22.578125 L 9.015625 -22.578125 C 9.804688 -24.628906 11.519531 -25.65625 14.15625 -25.65625 C 15.8125 -25.65625 17.082031 -25.25 17.96875 -24.4375 C 18.863281 -23.625 19.492188 -22.289062 19.859375 -20.4375 C 20.222656 -18.59375 20.40625 -15.972656 20.40625 -12.578125 C 20.40625 -9.140625 20.207031 -6.488281 19.8125 -4.625 C 19.414062 -2.757812 18.757812 -1.457031 17.84375 -0.71875 C 16.9375 0.0195312 15.675781 0.390625 14.0625 0.390625 Z M 11.296875 -5.34375 C 12.179688 -5.34375 12.796875 -5.472656 13.140625 -5.734375 C 13.492188 -6.003906 13.726562 -6.609375 13.84375 -7.546875 C 13.957031 -8.492188 14.015625 -10.1875 14.015625 -12.625 C 14.015625 -15.070312 13.957031 -16.765625 13.84375 -17.703125 C 13.726562 -18.640625 13.492188 -19.238281 13.140625 -19.5 C 12.796875 -19.769531 12.179688 -19.90625 11.296875 -19.90625 C 10.660156 -19.90625 10.171875 -19.804688 9.828125 -19.609375 C 9.484375 -19.410156 9.226562 -19.046875 9.0625 -18.515625 C 8.800781 -17.628906 8.671875 -15.664062 8.671875 -12.625 C 8.671875 -9.6875 8.785156 -7.804688 9.015625 -6.984375 C 9.140625 -6.359375 9.375 -5.925781 9.71875 -5.6875 C 10.070312 -5.457031 10.597656 -5.34375 11.296875 -5.34375 Z M 11.296875 -5.34375 "/></g></g></g><g fill="#ffffff" fill-opacity="1"><g transform="translate(202.181184, 236.994971)"><g><path d="M 2.234375 -30.75 L 2.234375 -36.796875 L 8.71875 -36.796875 L 8.71875 -30.75 Z M 2.28125 0 L 2.28125 -25.25 L 8.671875 -25.25 L 8.671875 0 Z M 2.28125 0 "/></g></g></g><g fill="#ffffff" fill-opacity="1"><g transform="translate(211.144512, 236.994971)"><g><path d="M 6.984375 0.390625 C 4.929688 0.390625 3.457031 -0.222656 2.5625 -1.453125 C 1.675781 -2.691406 1.234375 -4.632812 1.234375 -7.28125 C 1.234375 -9.226562 1.429688 -10.753906 1.828125 -11.859375 C 2.222656 -12.960938 2.890625 -13.769531 3.828125 -14.28125 C 4.773438 -14.789062 6.09375 -15.046875 7.78125 -15.046875 C 8.96875 -15.046875 10.550781 -14.984375 12.53125 -14.859375 L 12.53125 -16 C 12.53125 -17.382812 12.421875 -18.363281 12.203125 -18.9375 C 11.992188 -19.519531 11.597656 -19.890625 11.015625 -20.046875 C 10.441406 -20.210938 9.441406 -20.296875 8.015625 -20.296875 C 6.628906 -20.296875 4.78125 -20.179688 2.46875 -19.953125 L 2.46875 -24.90625 C 4.945312 -25.40625 7.441406 -25.65625 9.953125 -25.65625 C 12.429688 -25.65625 14.3125 -25.320312 15.59375 -24.65625 C 16.882812 -24 17.757812 -22.957031 18.21875 -21.53125 C 18.6875 -20.113281 18.921875 -18.085938 18.921875 -15.453125 L 18.921875 0 L 12.828125 0 L 12.625 -2.96875 L 12.28125 -2.96875 C 11.851562 -1.75 11.160156 -0.882812 10.203125 -0.375 C 9.242188 0.132812 8.171875 0.390625 6.984375 0.390625 Z M 9.75 -5.15625 C 10.3125 -5.15625 10.765625 -5.21875 11.109375 -5.34375 C 11.460938 -5.476562 11.753906 -5.726562 11.984375 -6.09375 C 12.347656 -6.65625 12.53125 -7.789062 12.53125 -9.5 L 12.53125 -10.75 L 9.5625 -10.75 C 8.695312 -10.75 8.125 -10.566406 7.84375 -10.203125 C 7.5625 -9.835938 7.421875 -9.046875 7.421875 -7.828125 C 7.421875 -6.765625 7.5625 -6.050781 7.84375 -5.6875 C 8.125 -5.332031 8.757812 -5.15625 9.75 -5.15625 Z M 9.75 -5.15625 "/></g></g></g><g fill="#ffffff" fill-opacity="1"><g transform="translate(230.259823, 236.994971)"><g><path d="M 2.28125 0 L 2.28125 -36.796875 L 8.671875 -36.796875 L 8.671875 0 Z M 2.28125 0 "/></g></g></g><g fill="#ffffff" fill-opacity="1"><g transform="translate(239.223151, 236.994971)"><g><path d="M 10.796875 0.390625 C 7.953125 0.390625 5.898438 0.03125 4.640625 -0.6875 C 3.390625 -1.414062 2.582031 -2.640625 2.21875 -4.359375 C 1.863281 -6.078125 1.6875 -8.832031 1.6875 -12.625 C 1.6875 -16.425781 1.863281 -19.179688 2.21875 -20.890625 C 2.582031 -22.609375 3.390625 -23.832031 4.640625 -24.5625 C 5.898438 -25.289062 7.953125 -25.65625 10.796875 -25.65625 C 13.628906 -25.65625 15.671875 -25.289062 16.921875 -24.5625 C 18.179688 -23.832031 18.992188 -22.609375 19.359375 -20.890625 C 19.722656 -19.179688 19.90625 -16.425781 19.90625 -12.625 C 19.90625 -8.832031 19.722656 -6.078125 19.359375 -4.359375 C 18.992188 -2.640625 18.179688 -1.414062 16.921875 -0.6875 C 15.671875 0.03125 13.628906 0.390625 10.796875 0.390625 Z M 10.796875 -4.953125 C 11.753906 -4.953125 12.40625 -5.097656 12.75 -5.390625 C 13.09375 -5.691406 13.304688 -6.3125 13.390625 -7.25 C 13.472656 -8.195312 13.515625 -9.988281 13.515625 -12.625 C 13.515625 -15.269531 13.472656 -17.0625 13.390625 -18 C 13.304688 -18.9375 13.09375 -19.550781 12.75 -19.84375 C 12.40625 -20.144531 11.753906 -20.296875 10.796875 -20.296875 C 9.835938 -20.296875 9.179688 -20.144531 8.828125 -19.84375 C 8.484375 -19.550781 8.269531 -18.9375 8.1875 -18 C 8.113281 -17.0625 8.078125 -15.269531 8.078125 -12.625 C 8.078125 -9.988281 8.113281 -8.195312 8.1875 -7.25 C 8.269531 -6.3125 8.484375 -5.691406 8.828125 -5.390625 C 9.179688 -5.097656 9.835938 -4.953125 10.796875 -4.953125 Z M 10.796875 -4.953125 "/></g></g></g></svg>