<svg xmlns="http://www.w3.org/2000/svg" xmlns:xlink="http://www.w3.org/1999/xlink" width="1080" zoomAndPan="magnify" viewBox="0 0 810 809.999993" height="1080" preserveAspectRatio="xMidYMid meet" version="1.0"><defs><g/><clipPath id="27ac53a21d"><path d="M 208.636719 488 L 601.636719 488 L 601.636719 501.898438 L 208.636719 501.898438 Z M 208.636719 488 " clip-rule="nonzero"/></clipPath></defs><path fill="#2b2b2b" d="M 319.667969 448.164062 C 315.859375 448.164062 312.84375 445.070312 312.84375 441.34375 L 312.84375 321.304688 C 312.84375 317.496094 315.9375 314.480469 319.667969 314.480469 C 323.476562 314.480469 326.492188 317.574219 326.492188 321.304688 L 326.492188 441.34375 C 326.492188 445.070312 323.394531 448.164062 319.667969 448.164062 Z M 319.667969 448.164062 " fill-opacity="1" fill-rule="nonzero"/><path fill="#2b2b2b" d="M 376.554688 448.164062 C 372.746094 448.164062 369.730469 445.070312 369.730469 441.34375 L 369.730469 321.304688 C 369.730469 317.496094 372.824219 314.480469 376.554688 314.480469 C 380.28125 314.480469 383.375 317.574219 383.375 321.304688 L 383.375 441.34375 C 383.375 445.070312 380.359375 448.164062 376.554688 448.164062 Z M 376.554688 448.164062 " fill-opacity="1" fill-rule="nonzero"/><path fill="#2b2b2b" d="M 433.4375 448.164062 C 429.628906 448.164062 426.617188 445.070312 426.617188 441.34375 L 426.617188 321.304688 C 426.617188 317.496094 429.710938 314.480469 433.4375 314.480469 C 437.167969 314.480469 440.261719 317.574219 440.261719 321.304688 L 440.261719 441.34375 C 440.261719 445.070312 437.246094 448.164062 433.4375 448.164062 Z M 433.4375 448.164062 " fill-opacity="1" fill-rule="nonzero"/><path fill="#2b2b2b" d="M 490.324219 448.164062 C 486.515625 448.164062 483.5 445.070312 483.5 441.34375 L 483.5 321.304688 C 483.5 317.496094 486.59375 314.480469 490.324219 314.480469 C 494.054688 314.480469 497.148438 317.574219 497.148438 321.304688 L 497.148438 441.34375 C 497.226562 445.070312 494.132812 448.164062 490.324219 448.164062 Z M 490.324219 448.164062 " fill-opacity="1" fill-rule="nonzero"/><g clip-path="url(#27ac53a21d)"><path fill="#2b2b2b" d="M 594.414062 502.195312 L 215.574219 502.195312 C 211.765625 502.195312 208.753906 499.101562 208.753906 495.371094 C 208.753906 491.640625 211.847656 488.546875 215.574219 488.546875 L 594.414062 488.546875 C 598.222656 488.546875 601.238281 491.640625 601.238281 495.371094 C 601.238281 499.101562 598.222656 502.195312 594.414062 502.195312 Z M 594.414062 502.195312 " fill-opacity="1" fill-rule="nonzero"/></g><path fill="#2b2b2b" d="M 519.125 326.222656 L 291.027344 326.222656 C 287.21875 326.222656 284.203125 323.128906 284.203125 319.398438 L 284.203125 294.644531 C 284.203125 292.027344 285.710938 289.566406 288.089844 288.457031 L 402.179688 234.269531 C 404.003906 233.394531 406.226562 233.394531 408.050781 234.269531 L 522.058594 288.535156 C 524.441406 289.648438 525.945312 292.105469 525.945312 294.726562 L 525.945312 319.398438 C 525.945312 323.207031 522.933594 326.222656 519.125 326.222656 Z M 297.847656 312.574219 L 512.300781 312.574219 L 512.300781 299.089844 L 405.113281 248.074219 L 297.847656 299.007812 Z M 297.847656 312.574219 " fill-opacity="1" fill-rule="nonzero"/><path fill="#2b2b2b" d="M 348.941406 326.222656 L 290.945312 326.222656 C 287.140625 326.222656 284.125 323.128906 284.125 319.398438 L 284.125 294.644531 C 284.125 292.027344 285.632812 289.566406 288.011719 288.457031 L 402.101562 234.269531 C 403.925781 233.394531 406.144531 233.394531 407.972656 234.269531 L 496.273438 276.320312 C 499.6875 277.90625 501.113281 282.03125 499.527344 285.441406 C 497.941406 288.855469 493.816406 290.28125 490.402344 288.695312 L 405.035156 248.074219 L 297.769531 299.007812 L 297.769531 312.574219 L 348.863281 312.574219 C 352.671875 312.574219 355.6875 315.671875 355.6875 319.398438 C 355.6875 323.128906 352.75 326.222656 348.941406 326.222656 Z M 348.941406 326.222656 " fill-opacity="1" fill-rule="nonzero"/><path fill="#2b2b2b" d="M 574.34375 470.695312 L 235.648438 470.695312 C 231.839844 470.695312 228.824219 467.601562 228.824219 463.875 C 228.824219 460.144531 231.917969 457.050781 235.648438 457.050781 L 574.34375 457.050781 C 578.152344 457.050781 581.167969 460.144531 581.167969 463.875 C 581.167969 467.601562 578.152344 470.695312 574.34375 470.695312 Z M 574.34375 470.695312 " fill-opacity="1" fill-rule="nonzero"/><path fill="#2b2b2b" d="M 262.78125 448.164062 C 258.972656 448.164062 255.957031 445.070312 255.957031 441.34375 L 255.957031 396.675781 C 255.957031 392.867188 259.054688 389.851562 262.78125 389.851562 C 266.511719 389.851562 269.605469 392.945312 269.605469 396.675781 L 269.605469 441.34375 C 269.683594 445.070312 266.589844 448.164062 262.78125 448.164062 Z M 262.78125 448.164062 " fill-opacity="1" fill-rule="nonzero"/><path fill="#2b2b2b" d="M 296.023438 400.878906 L 241.359375 400.878906 C 237.550781 400.878906 234.539062 397.785156 234.539062 394.054688 L 234.539062 364.9375 C 234.539062 361.132812 237.632812 358.117188 241.359375 358.117188 L 296.023438 358.117188 C 299.832031 358.117188 302.847656 361.210938 302.847656 364.9375 C 302.847656 368.667969 299.753906 371.761719 296.023438 371.761719 L 248.183594 371.761719 L 248.183594 387.152344 L 296.023438 387.152344 C 299.832031 387.152344 302.847656 390.25 302.847656 393.976562 C 302.847656 397.863281 299.832031 400.878906 296.023438 400.878906 Z M 296.023438 400.878906 " fill-opacity="1" fill-rule="nonzero"/><path fill="#2b2b2b" d="M 547.289062 448.164062 C 543.480469 448.164062 540.464844 445.070312 540.464844 441.34375 L 540.464844 396.675781 C 540.464844 392.867188 543.558594 389.851562 547.289062 389.851562 C 551.097656 389.851562 554.113281 392.945312 554.113281 396.675781 L 554.113281 441.34375 C 554.113281 445.070312 551.097656 448.164062 547.289062 448.164062 Z M 547.289062 448.164062 " fill-opacity="1" fill-rule="nonzero"/><path fill="#2b2b2b" d="M 568.632812 400.878906 L 513.96875 400.878906 C 510.160156 400.878906 507.144531 397.785156 507.144531 394.054688 C 507.144531 390.25 510.238281 387.234375 513.96875 387.234375 L 561.808594 387.234375 L 561.808594 371.839844 L 513.96875 371.839844 C 510.160156 371.839844 507.144531 368.746094 507.144531 365.019531 C 507.144531 361.289062 510.238281 358.195312 513.96875 358.195312 L 568.632812 358.195312 C 572.4375 358.195312 575.453125 361.289062 575.453125 365.019531 L 575.453125 394.136719 C 575.453125 397.863281 572.4375 400.878906 568.632812 400.878906 Z M 568.632812 400.878906 " fill-opacity="1" fill-rule="nonzero"/><path fill="#2b2b2b" d="M 423.046875 178.8125 C 423.046875 179.460938 422.980469 180.109375 422.855469 180.746094 C 422.726562 181.386719 422.539062 182.003906 422.289062 182.605469 C 422.042969 183.207031 421.734375 183.78125 421.375 184.320312 C 421.011719 184.863281 420.601562 185.363281 420.140625 185.824219 C 419.679688 186.285156 419.179688 186.695312 418.636719 187.058594 C 418.097656 187.417969 417.523438 187.726562 416.921875 187.972656 C 416.320312 188.222656 415.703125 188.410156 415.0625 188.539062 C 414.425781 188.664062 413.777344 188.730469 413.128906 188.730469 C 412.476562 188.730469 411.832031 188.664062 411.191406 188.539062 C 410.554688 188.410156 409.933594 188.222656 409.332031 187.972656 C 408.730469 187.726562 408.160156 187.417969 407.617188 187.058594 C 407.078125 186.695312 406.574219 186.285156 406.117188 185.824219 C 405.65625 185.363281 405.242188 184.863281 404.882812 184.320312 C 404.519531 183.78125 404.214844 183.207031 403.964844 182.605469 C 403.714844 182.003906 403.527344 181.386719 403.402344 180.746094 C 403.273438 180.109375 403.210938 179.460938 403.210938 178.8125 C 403.210938 178.160156 403.273438 177.515625 403.402344 176.875 C 403.527344 176.238281 403.714844 175.617188 403.964844 175.015625 C 404.214844 174.414062 404.519531 173.84375 404.882812 173.300781 C 405.242188 172.761719 405.65625 172.257812 406.117188 171.800781 C 406.574219 171.339844 407.078125 170.925781 407.617188 170.566406 C 408.160156 170.203125 408.730469 169.898438 409.332031 169.648438 C 409.933594 169.398438 410.554688 169.210938 411.191406 169.085938 C 411.832031 168.957031 412.476562 168.894531 413.128906 168.894531 C 413.777344 168.894531 414.425781 168.957031 415.0625 169.085938 C 415.703125 169.210938 416.320312 169.398438 416.921875 169.648438 C 417.523438 169.898438 418.097656 170.203125 418.636719 170.566406 C 419.179688 170.925781 419.679688 171.339844 420.140625 171.800781 C 420.601562 172.257812 421.011719 172.761719 421.375 173.300781 C 421.734375 173.84375 422.042969 174.414062 422.289062 175.015625 C 422.539062 175.617188 422.726562 176.238281 422.855469 176.875 C 422.980469 177.515625 423.046875 178.160156 423.046875 178.8125 Z M 423.046875 178.8125 " fill-opacity="1" fill-rule="nonzero"/><path fill="#2b2b2b" d="M 557.207031 248.789062 C 557.207031 249.4375 557.144531 250.085938 557.015625 250.722656 C 556.886719 251.363281 556.699219 251.980469 556.453125 252.582031 C 556.203125 253.183594 555.898438 253.757812 555.535156 254.296875 C 555.171875 254.839844 554.761719 255.339844 554.300781 255.800781 C 553.839844 256.261719 553.339844 256.671875 552.796875 257.035156 C 552.257812 257.394531 551.6875 257.699219 551.085938 257.949219 C 550.484375 258.199219 549.863281 258.386719 549.222656 258.515625 C 548.585938 258.640625 547.941406 258.707031 547.289062 258.707031 C 546.636719 258.707031 545.992188 258.640625 545.355469 258.515625 C 544.714844 258.386719 544.09375 258.199219 543.492188 257.949219 C 542.890625 257.699219 542.320312 257.394531 541.777344 257.035156 C 541.238281 256.671875 540.738281 256.261719 540.277344 255.800781 C 539.816406 255.339844 539.40625 254.839844 539.042969 254.296875 C 538.679688 253.757812 538.375 253.183594 538.125 252.582031 C 537.878906 251.980469 537.6875 251.363281 537.5625 250.722656 C 537.433594 250.085938 537.371094 249.4375 537.371094 248.789062 C 537.371094 248.136719 537.433594 247.492188 537.5625 246.851562 C 537.6875 246.214844 537.878906 245.59375 538.125 244.992188 C 538.375 244.390625 538.679688 243.820312 539.042969 243.277344 C 539.40625 242.738281 539.816406 242.234375 540.277344 241.777344 C 540.738281 241.316406 541.238281 240.902344 541.777344 240.542969 C 542.320312 240.179688 542.890625 239.875 543.492188 239.625 C 544.09375 239.375 544.714844 239.1875 545.355469 239.0625 C 545.992188 238.933594 546.636719 238.871094 547.289062 238.871094 C 547.941406 238.871094 548.585938 238.933594 549.222656 239.0625 C 549.863281 239.1875 550.484375 239.375 551.085938 239.625 C 551.6875 239.875 552.257812 240.179688 552.796875 240.542969 C 553.339844 240.902344 553.839844 241.316406 554.300781 241.777344 C 554.761719 242.234375 555.171875 242.738281 555.535156 243.277344 C 555.898438 243.820312 556.203125 244.390625 556.453125 244.992188 C 556.699219 245.59375 556.886719 246.214844 557.015625 246.851562 C 557.144531 247.492188 557.207031 248.136719 557.207031 248.789062 Z M 557.207031 248.789062 " fill-opacity="1" fill-rule="nonzero"/><path fill="#2b2b2b" d="M 234.855469 271.242188 C 234.855469 271.890625 234.792969 272.535156 234.664062 273.175781 C 234.539062 273.8125 234.347656 274.433594 234.101562 275.035156 C 233.851562 275.636719 233.546875 276.210938 233.183594 276.75 C 232.820312 277.292969 232.410156 277.792969 231.949219 278.253906 C 231.488281 278.714844 230.988281 279.125 230.449219 279.488281 C 229.90625 279.847656 229.335938 280.152344 228.734375 280.402344 C 228.132812 280.652344 227.511719 280.839844 226.871094 280.96875 C 226.234375 281.09375 225.589844 281.15625 224.9375 281.15625 C 224.285156 281.15625 223.640625 281.09375 223.003906 280.96875 C 222.363281 280.839844 221.742188 280.652344 221.140625 280.402344 C 220.539062 280.152344 219.96875 279.847656 219.429688 279.488281 C 218.886719 279.125 218.386719 278.714844 217.925781 278.253906 C 217.464844 277.792969 217.054688 277.292969 216.691406 276.75 C 216.328125 276.210938 216.023438 275.636719 215.773438 275.035156 C 215.527344 274.433594 215.335938 273.8125 215.210938 273.175781 C 215.082031 272.535156 215.019531 271.890625 215.019531 271.242188 C 215.019531 270.589844 215.082031 269.945312 215.210938 269.304688 C 215.335938 268.667969 215.527344 268.046875 215.773438 267.445312 C 216.023438 266.84375 216.328125 266.273438 216.691406 265.730469 C 217.054688 265.191406 217.464844 264.6875 217.925781 264.226562 C 218.386719 263.769531 218.886719 263.355469 219.429688 262.996094 C 219.96875 262.632812 220.539062 262.328125 221.140625 262.078125 C 221.742188 261.828125 222.363281 261.640625 223.003906 261.515625 C 223.640625 261.386719 224.285156 261.324219 224.9375 261.324219 C 225.589844 261.324219 226.234375 261.386719 226.871094 261.515625 C 227.511719 261.640625 228.132812 261.828125 228.734375 262.078125 C 229.335938 262.328125 229.90625 262.632812 230.449219 262.996094 C 230.988281 263.355469 231.488281 263.769531 231.949219 264.226562 C 232.410156 264.6875 232.820312 265.191406 233.183594 265.730469 C 233.546875 266.273438 233.851562 266.84375 234.101562 267.445312 C 234.347656 268.046875 234.539062 268.667969 234.664062 269.304688 C 234.792969 269.945312 234.855469 270.589844 234.855469 271.242188 Z M 234.855469 271.242188 " fill-opacity="1" fill-rule="nonzero"/><path fill="#2b2b2b" d="M 254.847656 224.035156 C 254.847656 224.6875 254.785156 225.332031 254.65625 225.96875 C 254.53125 226.609375 254.34375 227.226562 254.09375 227.828125 C 253.84375 228.429688 253.539062 229.003906 253.175781 229.542969 C 252.816406 230.085938 252.402344 230.585938 251.941406 231.046875 C 251.484375 231.507812 250.980469 231.917969 250.441406 232.28125 C 249.898438 232.640625 249.328125 232.949219 248.726562 233.195312 C 248.125 233.445312 247.503906 233.632812 246.867188 233.761719 C 246.226562 233.886719 245.582031 233.953125 244.929688 233.953125 C 244.28125 233.953125 243.632812 233.886719 242.996094 233.761719 C 242.355469 233.632812 241.738281 233.445312 241.136719 233.195312 C 240.535156 232.949219 239.960938 232.640625 239.421875 232.28125 C 238.878906 231.917969 238.378906 231.507812 237.917969 231.046875 C 237.457031 230.585938 237.046875 230.085938 236.683594 229.542969 C 236.324219 229.003906 236.019531 228.429688 235.769531 227.828125 C 235.519531 227.226562 235.332031 226.609375 235.203125 225.96875 C 235.078125 225.332031 235.011719 224.6875 235.011719 224.035156 C 235.011719 223.382812 235.078125 222.738281 235.203125 222.101562 C 235.332031 221.460938 235.519531 220.839844 235.769531 220.238281 C 236.019531 219.636719 236.324219 219.066406 236.683594 218.523438 C 237.046875 217.984375 237.457031 217.480469 237.917969 217.023438 C 238.378906 216.5625 238.878906 216.148438 239.421875 215.789062 C 239.960938 215.425781 240.535156 215.121094 241.136719 214.871094 C 241.738281 214.621094 242.355469 214.433594 242.996094 214.308594 C 243.632812 214.179688 244.28125 214.117188 244.929688 214.117188 C 245.582031 214.117188 246.226562 214.179688 246.867188 214.308594 C 247.503906 214.433594 248.125 214.621094 248.726562 214.871094 C 249.328125 215.121094 249.898438 215.425781 250.441406 215.789062 C 250.980469 216.148438 251.484375 216.5625 251.941406 217.023438 C 252.402344 217.480469 252.816406 217.984375 253.175781 218.523438 C 253.539062 219.066406 253.84375 219.636719 254.09375 220.238281 C 254.34375 220.839844 254.53125 221.460938 254.65625 222.101562 C 254.785156 222.738281 254.847656 223.382812 254.847656 224.035156 Z M 254.847656 224.035156 " fill-opacity="1" fill-rule="nonzero"/><g fill="#2b2b2b" fill-opacity="1"><g transform="translate(179.738769, 598.92995)"><g><path d="M 34.890625 1 C 28.941406 1 23.554688 -0.289062 18.734375 -2.875 C 13.921875 -5.46875 10.132812 -9.054688 7.375 -13.640625 C 4.625 -18.234375 3.25 -23.425781 3.25 -29.21875 C 3.25 -35.007812 4.625 -40.195312 7.375 -44.78125 C 10.132812 -49.375 13.921875 -52.960938 18.734375 -55.546875 C 23.554688 -58.140625 28.972656 -59.4375 34.984375 -59.4375 C 40.046875 -59.4375 44.617188 -58.546875 48.703125 -56.765625 C 52.796875 -54.984375 56.238281 -52.425781 59.03125 -49.09375 L 50.34375 -41.078125 C 46.382812 -45.640625 41.484375 -47.921875 35.640625 -47.921875 C 32.023438 -47.921875 28.796875 -47.125 25.953125 -45.53125 C 23.117188 -43.945312 20.910156 -41.734375 19.328125 -38.890625 C 17.742188 -36.054688 16.953125 -32.832031 16.953125 -29.21875 C 16.953125 -25.601562 17.742188 -22.375 19.328125 -19.53125 C 20.910156 -16.695312 23.117188 -14.484375 25.953125 -12.890625 C 28.796875 -11.304688 32.023438 -10.515625 35.640625 -10.515625 C 41.484375 -10.515625 46.382812 -12.828125 50.34375 -17.453125 L 59.03125 -9.4375 C 56.238281 -6.039062 52.785156 -3.453125 48.671875 -1.671875 C 44.554688 0.109375 39.960938 1 34.890625 1 Z M 34.890625 1 "/></g></g></g><g fill="#2b2b2b" fill-opacity="1"><g transform="translate(236.583069, 598.92995)"><g><path d="M 45.421875 -12.515625 L 18.28125 -12.515625 L 13.109375 0 L -0.75 0 L 25.296875 -58.4375 L 38.65625 -58.4375 L 64.78125 0 L 50.59375 0 Z M 41.15625 -22.796875 L 31.890625 -45.171875 L 22.625 -22.796875 Z M 41.15625 -22.796875 "/></g></g></g><g fill="#2b2b2b" fill-opacity="1"><g transform="translate(296.181963, 598.92995)"><g><path d="M 60.109375 0 L 60.03125 -35.0625 L 42.828125 -6.171875 L 36.734375 -6.171875 L 19.625 -34.3125 L 19.625 0 L 6.921875 0 L 6.921875 -58.4375 L 18.109375 -58.4375 L 39.984375 -22.125 L 61.53125 -58.4375 L 72.625 -58.4375 L 72.796875 0 Z M 60.109375 0 "/></g></g></g><g fill="#2b2b2b" fill-opacity="1"><g transform="translate(371.557188, 598.92995)"><g><path d="M 49.84375 -30.390625 C 53.175781 -29.328125 55.789062 -27.554688 57.6875 -25.078125 C 59.582031 -22.609375 60.53125 -19.566406 60.53125 -15.953125 C 60.53125 -10.828125 58.539062 -6.882812 54.5625 -4.125 C 50.582031 -1.375 44.78125 0 37.15625 0 L 6.921875 0 L 6.921875 -58.4375 L 35.484375 -58.4375 C 42.609375 -58.4375 48.078125 -57.070312 51.890625 -54.34375 C 55.703125 -51.613281 57.609375 -47.914062 57.609375 -43.25 C 57.609375 -40.40625 56.925781 -37.867188 55.5625 -35.640625 C 54.195312 -33.421875 52.289062 -31.671875 49.84375 -30.390625 Z M 20.375 -48.25 L 20.375 -34.484375 L 33.8125 -34.484375 C 37.144531 -34.484375 39.675781 -35.066406 41.40625 -36.234375 C 43.132812 -37.398438 44 -39.125 44 -41.40625 C 44 -43.6875 43.132812 -45.394531 41.40625 -46.53125 C 39.675781 -47.675781 37.144531 -48.25 33.8125 -48.25 Z M 36.15625 -10.1875 C 39.707031 -10.1875 42.390625 -10.769531 44.203125 -11.9375 C 46.015625 -13.101562 46.921875 -14.910156 46.921875 -17.359375 C 46.921875 -22.203125 43.332031 -24.625 36.15625 -24.625 L 20.375 -24.625 L 20.375 -10.1875 Z M 36.15625 -10.1875 "/></g></g></g><g fill="#2b2b2b" fill-opacity="1"><g transform="translate(431.072619, 598.92995)"><g><path d="M 6.921875 -58.4375 L 20.453125 -58.4375 L 20.453125 0 L 6.921875 0 Z M 6.921875 -58.4375 "/></g></g></g><g fill="#2b2b2b" fill-opacity="1"><g transform="translate(454.11049, 598.92995)"><g><path d="M 45.421875 -12.515625 L 18.28125 -12.515625 L 13.109375 0 L -0.75 0 L 25.296875 -58.4375 L 38.65625 -58.4375 L 64.78125 0 L 50.59375 0 Z M 41.15625 -22.796875 L 31.890625 -45.171875 L 22.625 -22.796875 Z M 41.15625 -22.796875 "/></g></g></g><g fill="#2b2b2b" fill-opacity="1"><g transform="translate(513.709394, 598.92995)"><g><path d="M 6.921875 -58.4375 L 20.453125 -58.4375 L 20.453125 -11.015625 L 49.75 -11.015625 L 49.75 0 L 6.921875 0 Z M 6.921875 -58.4375 "/></g></g></g><g fill="#2b2b2b" fill-opacity="1"><g transform="translate(559.785732, 598.92995)"><g><path d="M 35.234375 1 C 29.160156 1 23.6875 -0.304688 18.8125 -2.921875 C 13.945312 -5.535156 10.132812 -9.140625 7.375 -13.734375 C 4.625 -18.328125 3.25 -23.488281 3.25 -29.21875 C 3.25 -34.945312 4.625 -40.109375 7.375 -44.703125 C 10.132812 -49.296875 13.945312 -52.898438 18.8125 -55.515625 C 23.6875 -58.128906 29.160156 -59.4375 35.234375 -59.4375 C 41.296875 -59.4375 46.75 -58.128906 51.59375 -55.515625 C 56.4375 -52.898438 60.25 -49.296875 63.03125 -44.703125 C 65.8125 -40.109375 67.203125 -34.945312 67.203125 -29.21875 C 67.203125 -23.488281 65.8125 -18.328125 63.03125 -13.734375 C 60.25 -9.140625 56.4375 -5.535156 51.59375 -2.921875 C 46.75 -0.304688 41.296875 1 35.234375 1 Z M 35.234375 -10.515625 C 38.679688 -10.515625 41.796875 -11.304688 44.578125 -12.890625 C 47.359375 -14.484375 49.539062 -16.695312 51.125 -19.53125 C 52.71875 -22.375 53.515625 -25.601562 53.515625 -29.21875 C 53.515625 -32.832031 52.71875 -36.054688 51.125 -38.890625 C 49.539062 -41.734375 47.359375 -43.945312 44.578125 -45.53125 C 41.796875 -47.125 38.679688 -47.921875 35.234375 -47.921875 C 31.773438 -47.921875 28.65625 -47.125 25.875 -45.53125 C 23.09375 -43.945312 20.910156 -41.734375 19.328125 -38.890625 C 17.742188 -36.054688 16.953125 -32.832031 16.953125 -29.21875 C 16.953125 -25.601562 17.742188 -22.375 19.328125 -19.53125 C 20.910156 -16.695312 23.09375 -14.484375 25.875 -12.890625 C 28.65625 -11.304688 31.773438 -10.515625 35.234375 -10.515625 Z M 35.234375 -10.515625 "/></g></g></g></svg>